<?xml version="1.0" encoding="UTF-8"?>
<svg xmlns="http://www.w3.org/2000/svg" xmlns:xlink="http://www.w3.org/1999/xlink" width="131.4pt" height="159.8pt" viewBox="0 0 131.4 159.8" version="1.1">
<defs>
<clipPath id="clip1">
  <path d="M 0 134 L 131.398438 134 L 131.398438 159.800781 L 0 159.800781 Z M 0 134 "/>
</clipPath>
</defs>
<g id="surface1">
<path style=" stroke:none;fill-rule:evenodd;fill:rgb(6.272888%,16.479492%,51.367188%);fill-opacity:1;" d="M 63.265625 -0.0898438 C 97.257813 -0.0898438 124.816406 26.640625 124.816406 59.613281 C 124.816406 92.585938 97.257813 119.3125 63.265625 119.3125 C 29.273438 119.3125 1.71875 92.585938 1.71875 59.613281 C 1.71875 26.640625 29.273438 -0.0898438 63.265625 -0.0898438 Z M 63.265625 -0.0898438 "/>
<path style=" stroke:none;fill-rule:evenodd;fill:rgb(100%,100%,100%);fill-opacity:1;" d="M 117 71.21875 C 118.507813 67.519531 119.289063 63.402344 119.289063 58.828125 C 119.464844 54.183594 118.839844 50.019531 117.507813 46.289063 L 8.441406 46.289063 C 7.109375 50.019531 6.488281 54.183594 6.660156 58.828125 C 6.660156 63.402344 7.441406 67.519531 8.953125 71.21875 C 45.222656 71.449219 80.726563 71.449219 117 71.21875 Z M 117 71.21875 "/>
<path style=" stroke:none;fill-rule:evenodd;fill:rgb(0%,61.914063%,87.889099%);fill-opacity:1;" d="M 13.757813 68.4375 L 112.777344 68.4375 L 112.777344 48.449219 L 13.757813 48.449219 Z M 13.757813 68.4375 "/>
<path style=" stroke:none;fill-rule:evenodd;fill:rgb(100%,100%,100%);fill-opacity:1;" d="M 24.542969 52.144531 C 25.375 52.144531 26.175781 52.335938 26.953125 52.71875 C 27.316406 52.902344 27.570313 52.992188 27.714844 52.992188 C 27.816406 52.992188 27.980469 52.964844 28.207031 52.910156 C 28.285156 52.894531 28.363281 52.882813 28.457031 52.882813 C 28.753906 52.882813 29.011719 53.027344 29.234375 53.316406 C 29.78125 54.015625 30.054688 54.882813 30.054688 55.914063 C 30.054688 56.644531 29.816406 57.179688 29.34375 57.515625 C 29.089844 57.695313 28.800781 57.785156 28.480469 57.785156 C 28.191406 57.785156 27.957031 57.722656 27.773438 57.589844 C 27.59375 57.453125 27.414063 57.21875 27.242188 56.882813 C 26.996094 56.410156 26.796875 56.066406 26.644531 55.859375 C 26.492188 55.652344 26.300781 55.460938 26.082031 55.289063 C 25.53125 54.886719 24.949219 54.679688 24.34375 54.679688 C 23.757813 54.679688 23.292969 54.90625 22.949219 55.351563 C 22.605469 55.800781 22.433594 56.402344 22.433594 57.15625 C 22.433594 58.191406 22.679688 59.136719 23.175781 59.996094 C 23.847656 61.148438 24.808594 61.722656 26.0625 61.722656 C 26.523438 61.722656 26.980469 61.640625 27.433594 61.476563 C 27.890625 61.316406 28.238281 61.105469 28.492188 60.847656 C 28.707031 60.632813 28.882813 60.523438 29.019531 60.523438 C 29.21875 60.523438 29.390625 60.617188 29.535156 60.816406 C 29.675781 61.007813 29.746094 61.246094 29.746094 61.523438 C 29.746094 61.871094 29.648438 62.265625 29.449219 62.699219 C 29.25 63.128906 29.011719 63.472656 28.730469 63.71875 C 28.609375 63.820313 28.363281 63.910156 27.984375 63.988281 C 27.769531 64.03125 27.480469 64.140625 27.121094 64.324219 C 26.28125 64.746094 25.40625 64.964844 24.492188 64.964844 C 23.539063 64.964844 22.59375 64.738281 21.644531 64.285156 C 20.542969 63.761719 19.679688 62.960938 19.039063 61.871094 C 18.414063 60.820313 18.101563 59.722656 18.101563 58.570313 C 18.101563 57.234375 18.492188 56.019531 19.277344 54.914063 C 19.960938 53.960938 20.855469 53.226563 21.953125 52.71875 C 22.789063 52.335938 23.652344 52.144531 24.542969 52.144531 Z M 37.25 52.144531 C 38.714844 52.144531 39.996094 52.585938 41.089844 53.472656 C 41.832031 54.078125 42.429688 54.867188 42.890625 55.835938 C 43.339844 56.800781 43.566406 57.761719 43.566406 58.726563 C 43.566406 60.148438 43.121094 61.414063 42.234375 62.535156 C 41.480469 63.488281 40.496094 64.164063 39.285156 64.585938 C 38.539063 64.835938 37.789063 64.964844 37.039063 64.964844 C 36.050781 64.964844 35.109375 64.746094 34.207031 64.3125 C 33.121094 63.789063 32.269531 62.996094 31.652344 61.941406 C 31.054688 60.914063 30.757813 59.785156 30.757813 58.554688 C 30.757813 57.121094 31.140625 55.855469 31.910156 54.761719 C 32.59375 53.785156 33.515625 53.070313 34.667969 52.613281 C 35.445313 52.300781 36.304688 52.144531 37.25 52.144531 Z M 36.4375 54.734375 C 35.960938 54.734375 35.582031 54.960938 35.300781 55.410156 C 35.085938 55.746094 34.976563 56.148438 34.976563 56.613281 C 34.976563 57.289063 35.109375 58.078125 35.371094 58.972656 C 35.632813 59.867188 35.964844 60.660156 36.363281 61.351563 C 36.539063 61.648438 36.757813 61.882813 37.015625 62.058594 C 37.273438 62.230469 37.539063 62.320313 37.808594 62.320313 C 38.238281 62.320313 38.589844 62.148438 38.855469 61.804688 C 39.117188 61.460938 39.25 61.007813 39.25 60.449219 C 39.25 59.722656 39.140625 58.9375 38.914063 58.09375 C 38.695313 57.246094 38.410156 56.53125 38.054688 55.933594 C 37.835938 55.566406 37.585938 55.28125 37.304688 55.070313 C 37.015625 54.859375 36.726563 54.746094 36.4375 54.734375 Z M 52.773438 60.980469 L 51.746094 63.410156 C 51.566406 63.820313 51.425781 64.09375 51.320313 64.238281 C 51.207031 64.378906 51.089844 64.449219 50.957031 64.449219 C 50.835938 64.449219 50.722656 64.394531 50.625 64.277344 C 50.5625 64.207031 50.417969 63.941406 50.195313 63.484375 C 49.96875 63.023438 49.78125 62.617188 49.632813 62.265625 L 48.507813 59.578125 C 48.351563 59.210938 48.191406 59.023438 48.019531 59.023438 C 47.835938 59.023438 47.738281 59.183594 47.71875 59.503906 C 47.679688 60.210938 47.660156 60.867188 47.660156 61.46875 C 47.660156 62.09375 47.6875 62.519531 47.746094 62.742188 C 47.785156 62.871094 47.839844 62.972656 47.902344 63.03125 C 47.96875 63.09375 48.148438 63.199219 48.4375 63.359375 C 48.625 63.460938 48.71875 63.636719 48.71875 63.886719 C 48.71875 64.5625 47.902344 64.902344 46.265625 64.902344 C 44.886719 64.902344 44.199219 64.570313 44.199219 63.914063 C 44.199219 63.746094 44.234375 63.621094 44.308594 63.546875 C 44.378906 63.476563 44.5625 63.363281 44.859375 63.214844 C 45.042969 63.121094 45.171875 62.996094 45.238281 62.84375 C 45.304688 62.6875 45.359375 62.382813 45.402344 61.929688 C 45.457031 61.449219 45.503906 60.660156 45.550781 59.5625 C 45.597656 58.460938 45.617188 57.519531 45.617188 56.738281 C 45.617188 55.757813 45.546875 55.09375 45.402344 54.746094 C 45.355469 54.621094 45.296875 54.53125 45.226563 54.472656 C 45.164063 54.410156 45.039063 54.335938 44.859375 54.238281 C 44.453125 54.03125 44.25 53.769531 44.25 53.445313 C 44.25 53.230469 44.328125 53.039063 44.476563 52.863281 C 44.628906 52.691406 44.828125 52.570313 45.078125 52.496094 C 45.332031 52.414063 45.667969 52.351563 46.082031 52.289063 C 46.503906 52.238281 46.855469 52.203125 47.148438 52.203125 C 47.878906 52.203125 48.394531 52.269531 48.695313 52.398438 C 48.84375 52.453125 48.960938 52.539063 49.042969 52.640625 C 49.132813 52.742188 49.253906 52.953125 49.410156 53.273438 L 51.191406 56.730469 C 51.382813 57.109375 51.519531 57.339844 51.589844 57.425781 C 51.667969 57.507813 51.769531 57.550781 51.898438 57.550781 C 52.015625 57.550781 52.113281 57.507813 52.203125 57.414063 C 52.289063 57.328125 52.394531 57.15625 52.515625 56.910156 L 53.71875 54.425781 C 53.867188 54.109375 53.964844 53.898438 54.007813 53.804688 C 54.289063 53.203125 54.566406 52.804688 54.839844 52.601563 C 55.1875 52.34375 55.820313 52.214844 56.734375 52.214844 C 58.347656 52.214844 59.15625 52.601563 59.15625 53.378906 C 59.15625 53.554688 59.121094 53.695313 59.0625 53.800781 C 58.996094 53.90625 58.867188 54.03125 58.675781 54.183594 C 58.414063 54.394531 58.25 54.699219 58.179688 55.097656 C 58.050781 55.925781 57.984375 56.9375 57.984375 58.128906 C 57.984375 59.664063 58.050781 61.007813 58.1875 62.164063 C 58.222656 62.449219 58.277344 62.640625 58.347656 62.742188 C 58.417969 62.847656 58.601563 62.996094 58.898438 63.203125 C 59.101563 63.347656 59.207031 63.539063 59.207031 63.78125 C 59.207031 64.203125 58.941406 64.496094 58.410156 64.671875 C 58.136719 64.773438 57.851563 64.835938 57.546875 64.863281 C 57.246094 64.894531 56.78125 64.910156 56.15625 64.910156 C 55.191406 64.910156 54.476563 64.835938 54 64.691406 C 53.476563 64.527344 53.214844 64.253906 53.214844 63.863281 C 53.214844 63.71875 53.25 63.597656 53.316406 63.507813 C 53.386719 63.414063 53.5625 63.242188 53.847656 62.996094 C 53.996094 62.867188 54.097656 62.621094 54.152344 62.265625 C 54.203125 61.902344 54.234375 61.289063 54.234375 60.417969 C 54.234375 59.941406 54.210938 59.621094 54.167969 59.476563 C 54.125 59.324219 54.035156 59.246094 53.898438 59.246094 C 53.742188 59.246094 53.585938 59.363281 53.4375 59.59375 C 53.289063 59.828125 53.066406 60.289063 52.773438 60.980469 Z M 64.941406 52.144531 C 65.527344 52.144531 66.296875 52.296875 67.25 52.601563 C 67.363281 52.640625 67.453125 52.660156 67.519531 52.660156 C 67.578125 52.660156 67.75 52.601563 68.035156 52.496094 C 68.128906 52.453125 68.222656 52.441406 68.324219 52.441406 C 68.707031 52.441406 69.109375 52.761719 69.53125 53.398438 C 69.960938 54.035156 70.171875 54.644531 70.171875 55.222656 C 70.171875 55.558594 70.074219 55.84375 69.886719 56.074219 C 69.695313 56.308594 69.464844 56.425781 69.1875 56.425781 C 68.960938 56.425781 68.773438 56.371094 68.632813 56.28125 C 68.492188 56.179688 68.175781 55.898438 67.691406 55.414063 C 67.011719 54.746094 66.335938 54.410156 65.675781 54.410156 C 65.355469 54.410156 65.101563 54.492188 64.910156 54.652344 C 64.71875 54.816406 64.625 55.027344 64.625 55.289063 C 64.625 55.816406 65.0625 56.210938 65.933594 56.476563 C 67.113281 56.84375 67.867188 57.113281 68.195313 57.28125 C 69.648438 58.027344 70.375 59.128906 70.375 60.574219 C 70.375 61.859375 69.878906 62.90625 68.890625 63.71875 C 67.875 64.542969 66.550781 64.964844 64.914063 64.964844 C 64.1875 64.964844 63.417969 64.871094 62.609375 64.691406 C 61.800781 64.503906 61.214844 64.289063 60.855469 64.039063 C 60.582031 63.851563 60.335938 63.433594 60.117188 62.785156 C 59.898438 62.136719 59.789063 61.507813 59.789063 60.894531 C 59.789063 60.597656 59.847656 60.371094 59.960938 60.222656 C 60.101563 60.03125 60.28125 59.933594 60.496094 59.933594 C 60.714844 59.933594 60.921875 60.046875 61.121094 60.289063 C 61.238281 60.414063 61.523438 60.84375 61.964844 61.5625 C 62.175781 61.898438 62.511719 62.179688 62.96875 62.398438 C 63.429688 62.621094 63.902344 62.734375 64.394531 62.734375 C 64.816406 62.734375 65.15625 62.652344 65.421875 62.484375 C 65.683594 62.320313 65.8125 62.105469 65.8125 61.847656 C 65.8125 61.609375 65.710938 61.402344 65.503906 61.226563 C 65.300781 61.054688 64.96875 60.890625 64.503906 60.738281 C 63.691406 60.46875 63.070313 60.222656 62.644531 59.992188 C 62.214844 59.769531 61.816406 59.484375 61.445313 59.140625 C 60.546875 58.296875 60.097656 57.339844 60.097656 56.269531 C 60.097656 55.738281 60.214844 55.222656 60.445313 54.71875 C 60.679688 54.21875 61.007813 53.785156 61.4375 53.414063 C 62.394531 52.570313 63.5625 52.144531 64.941406 52.144531 Z M 81.816406 58.484375 L 83.433594 62.136719 C 83.585938 62.472656 83.714844 62.695313 83.816406 62.796875 C 83.917969 62.910156 84.078125 62.980469 84.289063 63.011719 C 84.699219 63.082031 84.902344 63.296875 84.902344 63.667969 C 84.902344 64.113281 84.652344 64.421875 84.148438 64.621094 C 83.648438 64.8125 82.828125 64.910156 81.6875 64.910156 C 80.402344 64.910156 79.449219 64.851563 78.828125 64.738281 C 78.539063 64.683594 78.316406 64.574219 78.148438 64.410156 C 77.976563 64.242188 77.894531 64.039063 77.894531 63.808594 C 77.894531 63.621094 77.941406 63.488281 78.027344 63.390625 C 78.113281 63.289063 78.277344 63.199219 78.515625 63.113281 C 78.785156 63.015625 78.921875 62.855469 78.921875 62.621094 C 78.921875 62.222656 78.6875 61.984375 78.230469 61.914063 C 77.734375 61.839844 77.035156 61.804688 76.132813 61.804688 C 75.375 61.804688 74.921875 61.851563 74.773438 61.949219 C 74.683594 62.007813 74.605469 62.117188 74.535156 62.273438 C 74.46875 62.429688 74.433594 62.582031 74.433594 62.726563 C 74.433594 62.855469 74.457031 62.941406 74.507813 62.980469 C 74.554688 63.023438 74.714844 63.085938 74.980469 63.171875 C 75.328125 63.285156 75.5 63.496094 75.5 63.828125 C 75.5 64.539063 74.691406 64.902344 73.066406 64.902344 C 72.144531 64.902344 71.46875 64.835938 71.03125 64.703125 C 70.632813 64.574219 70.433594 64.292969 70.433594 63.871094 C 70.433594 63.683594 70.476563 63.539063 70.566406 63.4375 C 70.65625 63.335938 70.8125 63.242188 71.042969 63.15625 C 71.410156 63.019531 71.691406 62.824219 71.882813 62.574219 C 72.074219 62.324219 72.34375 61.789063 72.699219 60.972656 L 73.902344 58.183594 C 74.347656 57.160156 74.648438 56.394531 74.796875 55.886719 C 74.945313 55.371094 75.027344 54.878906 75.03125 54.390625 C 75.039063 53.871094 75.066406 53.515625 75.121094 53.3125 C 75.175781 53.113281 75.296875 52.914063 75.484375 52.71875 C 75.878906 52.300781 76.378906 52.089844 76.988281 52.089844 C 77.5625 52.089844 78.113281 52.328125 78.640625 52.804688 C 79.371094 53.453125 80.429688 55.347656 81.816406 58.484375 Z M 75.867188 59.621094 L 77.546875 59.621094 C 77.851563 59.621094 78.007813 59.546875 78.007813 59.402344 C 78.007813 59.203125 77.792969 58.71875 77.367188 57.941406 C 77.171875 57.585938 77.023438 57.347656 76.921875 57.226563 C 76.816406 57.105469 76.707031 57.046875 76.59375 57.046875 C 76.390625 57.046875 76.21875 57.246094 76.085938 57.652344 C 76.0625 57.703125 75.976563 57.914063 75.835938 58.289063 C 75.597656 58.90625 75.476563 59.273438 75.476563 59.390625 C 75.476563 59.539063 75.605469 59.621094 75.867188 59.621094 Z M 88.148438 52.398438 L 92.652344 52.398438 C 93.136719 52.378906 93.582031 52.308594 93.976563 52.191406 C 94.148438 52.140625 94.300781 52.117188 94.429688 52.117188 C 94.894531 52.117188 95.34375 52.476563 95.777344 53.199219 C 96.210938 53.921875 96.429688 54.664063 96.429688 55.429688 C 96.429688 55.953125 96.28125 56.335938 95.980469 56.574219 C 95.75 56.757813 95.476563 56.847656 95.160156 56.847656 C 94.855469 56.847656 94.59375 56.761719 94.371094 56.578125 C 94.148438 56.402344 93.929688 56.109375 93.710938 55.699219 C 93.527344 55.328125 93.378906 55.078125 93.269531 54.96875 C 93.160156 54.855469 93.03125 54.796875 92.875 54.796875 C 92.664063 54.796875 92.511719 54.894531 92.421875 55.078125 C 92.332031 55.265625 92.285156 55.570313 92.285156 55.996094 L 92.285156 61.054688 C 92.285156 61.574219 92.339844 61.949219 92.441406 62.183594 C 92.542969 62.414063 92.734375 62.601563 93.019531 62.726563 C 93.328125 62.863281 93.535156 62.996094 93.648438 63.117188 C 93.761719 63.242188 93.816406 63.410156 93.816406 63.621094 C 93.816406 64.0625 93.535156 64.382813 92.984375 64.59375 C 92.425781 64.804688 91.574219 64.910156 90.421875 64.910156 C 89.011719 64.910156 87.960938 64.785156 87.277344 64.539063 C 86.703125 64.335938 86.414063 64.003906 86.414063 63.542969 C 86.414063 63.296875 86.519531 63.109375 86.722656 62.96875 C 86.773438 62.9375 86.976563 62.863281 87.328125 62.746094 C 87.546875 62.6875 87.695313 62.558594 87.777344 62.371094 C 87.859375 62.1875 87.929688 61.828125 87.980469 61.296875 C 88.023438 60.828125 88.066406 60.070313 88.109375 59.019531 C 88.148438 57.96875 88.167969 57.058594 88.167969 56.289063 C 88.167969 55.746094 88.125 55.359375 88.046875 55.132813 C 87.96875 54.902344 87.835938 54.789063 87.652344 54.789063 C 87.433594 54.789063 87.214844 54.953125 87.007813 55.289063 C 86.625 55.910156 86.308594 56.3125 86.0625 56.511719 C 85.773438 56.746094 85.492188 56.863281 85.21875 56.863281 C 84.910156 56.863281 84.65625 56.746094 84.460938 56.496094 C 84.257813 56.253906 84.160156 55.945313 84.160156 55.566406 C 84.160156 55.191406 84.238281 54.78125 84.398438 54.328125 C 84.558594 53.886719 84.773438 53.472656 85.039063 53.09375 C 85.472656 52.476563 85.902344 52.171875 86.320313 52.171875 C 86.433594 52.171875 86.566406 52.191406 86.714844 52.222656 C 87.019531 52.289063 87.273438 52.335938 87.46875 52.359375 C 87.667969 52.382813 87.894531 52.398438 88.148438 52.398438 Z M 101.945313 52.144531 C 102.53125 52.144531 103.300781 52.296875 104.25 52.601563 C 104.363281 52.640625 104.457031 52.660156 104.523438 52.660156 C 104.582031 52.660156 104.753906 52.601563 105.035156 52.496094 C 105.128906 52.453125 105.226563 52.441406 105.328125 52.441406 C 105.710938 52.441406 106.113281 52.761719 106.535156 53.398438 C 106.960938 54.035156 107.175781 54.644531 107.175781 55.222656 C 107.175781 55.558594 107.078125 55.84375 106.890625 56.074219 C 106.695313 56.308594 106.464844 56.425781 106.191406 56.425781 C 105.964844 56.425781 105.777344 56.371094 105.632813 56.28125 C 105.492188 56.179688 105.179688 55.898438 104.695313 55.414063 C 104.011719 54.746094 103.339844 54.410156 102.679688 54.410156 C 102.359375 54.410156 102.105469 54.492188 101.910156 54.652344 C 101.722656 54.816406 101.625 55.027344 101.625 55.289063 C 101.625 55.816406 102.0625 56.210938 102.9375 56.476563 C 104.113281 56.84375 104.871094 57.113281 105.199219 57.28125 C 106.652344 58.027344 107.378906 59.128906 107.378906 60.574219 C 107.378906 61.859375 106.882813 62.90625 105.890625 63.71875 C 104.878906 64.542969 103.550781 64.964844 101.917969 64.964844 C 101.1875 64.964844 100.417969 64.871094 99.609375 64.691406 C 98.800781 64.503906 98.214844 64.289063 97.855469 64.039063 C 97.585938 63.851563 97.339844 63.433594 97.121094 62.785156 C 96.902344 62.136719 96.789063 61.507813 96.789063 60.894531 C 96.789063 60.597656 96.847656 60.371094 96.960938 60.222656 C 97.105469 60.03125 97.28125 59.933594 97.5 59.933594 C 97.71875 59.933594 97.925781 60.046875 98.121094 60.289063 C 98.242188 60.414063 98.523438 60.84375 98.96875 61.5625 C 99.179688 61.898438 99.515625 62.179688 99.972656 62.398438 C 100.433594 62.621094 100.90625 62.734375 101.394531 62.734375 C 101.820313 62.734375 102.160156 62.652344 102.421875 62.484375 C 102.683594 62.320313 102.816406 62.105469 102.816406 61.847656 C 102.816406 61.609375 102.710938 61.402344 102.507813 61.226563 C 102.304688 61.054688 101.96875 60.890625 101.507813 60.738281 C 100.691406 60.46875 100.070313 60.222656 99.644531 59.992188 C 99.21875 59.769531 98.816406 59.484375 98.445313 59.140625 C 97.546875 58.296875 97.097656 57.339844 97.097656 56.269531 C 97.097656 55.738281 97.214844 55.222656 97.449219 54.71875 C 97.683594 54.21875 98.011719 53.785156 98.441406 53.414063 C 99.398438 52.570313 100.566406 52.144531 101.945313 52.144531 Z M 101.945313 52.144531 "/>
<path style=" stroke:none;fill-rule:evenodd;fill:rgb(100%,100%,100%);fill-opacity:1;" d="M 85.199219 94.726563 C 100.96875 90.519531 111.890625 83.46875 116.632813 72.851563 L 103.097656 72.851563 C 100.757813 83.660156 94.941406 89.285156 85.199219 94.726563 Z M 116.59375 44.816406 C 111.632813 33.941406 100.191406 27.070313 84.707031 22.9375 C 94 28.128906 100.335938 34.53125 102.972656 44.816406 Z M 40.722656 94.726563 C 24.953125 90.519531 14.03125 83.46875 9.292969 72.851563 L 22.824219 72.851563 C 25.167969 83.660156 30.980469 89.285156 40.722656 94.726563 Z M 9.328125 44.816406 C 14.289063 33.941406 25.734375 27.070313 41.21875 22.9375 C 31.925781 28.128906 25.589844 34.53125 22.949219 44.816406 Z M 83.644531 23.898438 C 91.316406 28.664063 97.335938 36.03125 100.570313 44.816406 L 97.53125 44.816406 C 94.863281 36.246094 89.949219 28.9375 83.644531 23.898438 Z M 101.109375 72.851563 C 98.035156 82.316406 91.769531 90.273438 83.648438 95.320313 C 90.332031 89.976563 95.449219 82.089844 97.988281 72.851563 Z M 42.882813 95.320313 C 34.765625 90.273438 28.496094 82.316406 25.425781 72.851563 L 28.546875 72.851563 C 31.085938 82.089844 36.199219 89.976563 42.882813 95.320313 Z M 25.964844 44.816406 C 29.199219 36.03125 35.21875 28.664063 42.890625 23.898438 C 36.582031 28.9375 31.671875 36.246094 29.003906 44.816406 Z M 62.40625 23.011719 L 64.125 23.011719 L 64.125 44.816406 L 62.40625 44.816406 Z M 64.125 95.433594 L 62.40625 95.433594 L 62.40625 72.851563 L 64.125 72.851563 Z M 76.058594 25.359375 C 79.945313 30.066406 82.996094 36.851563 84.710938 44.816406 L 82.578125 44.816406 C 81.28125 37.109375 78.996094 30.390625 76.058594 25.359375 Z M 85.023438 72.851563 C 83.390625 81.488281 80.199219 88.851563 76.058594 93.863281 C 79.195313 88.496094 81.582031 81.210938 82.828125 72.851563 Z M 50.476563 93.863281 C 46.335938 88.851563 43.148438 81.484375 41.511719 72.851563 L 43.710938 72.851563 C 44.953125 81.210938 47.339844 88.496094 50.476563 93.863281 Z M 41.824219 44.816406 C 43.539063 36.851563 46.585938 30.070313 50.472656 25.363281 C 47.535156 30.390625 45.253906 37.109375 43.957031 44.816406 Z M 41.824219 44.816406 "/>
<g clip-path="url(#clip1)" clip-rule="nonzero">
</g>
</g>
</svg>
